<svg id="Capa_1" enable-background="new 0 0 513.659 513.659" height="512" viewBox="0 0 513.659 513.659" width="512" xmlns="http://www.w3.org/2000/svg"><g><path d="m130.031 125.585v25.48c0 4.142 3.358 7.5 7.5 7.5s7.5-3.358 7.5-7.5v-25.48c0-4.142-3.358-7.5-7.5-7.5s-7.5 3.358-7.5 7.5z"/><path d="m145.468 235.571c3.899 1.398 8.193-.629 9.591-4.528s-.628-8.193-4.528-9.591c-94.998-34.071-135.531-62.116-135.531-93.773 0-18.167 22.888-27.377 68.029-27.377 1.934 0 3.729-.741 5.079-1.985 16.235-13.667 30.09-19.765 44.892-19.765 28.112 0 44.542 19.856 53.374 36.513.744 1.403 1.914 2.534 3.342 3.229l44.74 21.79c3.722 1.814 8.213.266 10.026-3.459 1.814-3.724.265-8.213-3.459-10.026l-42.581-20.738c-15.414-27.692-37.998-42.309-65.442-42.309-22.822 0-40.731 11.935-52.714 21.761-23.986.193-42.009 2.946-55.036 8.4-20.869 8.736-25.25 23.293-25.25 33.966 0 15.739 6.674 30.162 21.203 44.158 22.038 48.208 99.936 90.692 111.623 96.856l49.693 58.818-38.723 68.688h-24.323c-4.142 0-7.5 3.358-7.5 7.5s3.358 7.5 7.5 7.5h59.98c10.291 0 19.745-5.589 25.289-14.952l31.58-53.325c.796-1.343 1.515-2.673 2.17-3.992l18.968 8.094c-2.767 10.287-2.436 20.347 1.135 29.592 2.966 7.679 7.967 14.27 14.711 19.583h-46.201c-4.142 0-7.5 3.358-7.5 7.5s3.358 7.5 7.5 7.5h173.442l-49.632 24.691c-3.708 1.845-5.219 6.347-3.374 10.056s6.347 5.219 10.056 3.374l70.82-35.232c27.354-13.611 52.242-35.29 68.28-59.478 16.298-24.579 21.138-47.735 13.279-63.53-5.861-11.779-18.113-19.563-35.431-22.511-4.088-.695-7.958 2.052-8.652 6.135-.695 4.083 2.051 7.957 6.135 8.652 8.647 1.472 19.921 5.167 24.519 14.407 5.249 10.547.516 29.153-12.351 48.557-12.993 19.596-32.416 37.4-54.163 49.878h-41.179c46.201-20.602 81.559-54.509 89.542-86.73.996-4.021-1.456-8.087-5.476-9.083-4.019-.999-8.087 1.456-9.083 5.476-7.362 29.709-44.897 62.971-91.28 80.887-22.443 8.668-45.473 11.513-64.851 8.009-18.041-3.262-30.512-11.624-35.117-23.545-4.604-11.921-.992-26.496 10.172-41.038 11.99-15.62 30.954-28.995 53.396-37.664 17.516-6.766 35.465-9.945 51.511-9.411-4.887 2.051-9.771 4.277-14.629 6.695-31.953 15.899-58.665 37.741-73.287 59.924-2.279 3.458-1.324 8.11 2.135 10.39 3.459 2.279 8.11 1.324 10.39-2.135 13.208-20.039 37.791-39.994 67.444-54.749 22.028-10.96 44.487-17.949 64.949-20.211 4.117-.455 7.085-4.162 6.63-8.279s-4.154-7.081-8.279-6.63c-7.283.805-14.784 2.164-22.406 4.028l-16.671-38.257c-9.913-22.839-27.699-41.42-50.083-52.322l-87.434-42.582c-3.722-1.813-8.212-.265-10.026 3.459s-.265 8.213 3.459 10.026l87.434 42.582c19.169 9.336 34.401 25.249 42.895 44.818l12.992 29.814c-21.66-3.781-47.598-.744-72.429 8.848-24.977 9.647-46.246 24.749-59.891 42.522-3.064 3.991-5.669 8.022-7.818 12.058l-20.14-8.594c.874-8.669-1.713-16.843-7.767-24.693l-27.963-36.26c-2.529-3.28-7.238-3.888-10.519-1.359-3.28 2.529-3.889 7.239-1.359 10.519l27.963 36.26c6.406 8.307 6.451 15.684.159 26.309l-31.58 53.325c-2.817 4.756-7.446 7.595-12.383 7.595h-18.438l37.13-65.862c1.539-2.73 1.218-6.129-.804-8.523l-54.009-63.927c-.638-.755-1.421-1.377-2.3-1.83-.643-.331-48.504-25.182-81.152-57.191 21.824 11.931 50.096 23.975 85.587 36.704z"/></g></svg>