<?xml version="1.0" encoding="UTF-8"?>
<svg xmlns="http://www.w3.org/2000/svg" xmlns:xlink="http://www.w3.org/1999/xlink" version="1.1" id="Capa_1" x="0px" y="0px" viewBox="0 0 511.799 511.799" style="enable-background:new 0 0 511.799 511.799;" xml:space="preserve" width="512" height="512">
<g>
	<path style="fill-rule:evenodd;clip-rule:evenodd;fill:none;stroke:#000000;stroke-width:15.0001;stroke-miterlimit:22.9256;" d="&#10;&#9;&#9;M65.733,380.984c44.532,29.207,140.863,40.133,159.226,15.549c10.964-14.678,49.738-70.713-2.174-84.895&#10;&#9;&#9;c-90.341-24.68-199.628,29.546-210.116,66.633C3.5,410.687,38.991,451.554,88.92,451.554h184.286&#10;&#9;&#9;c17.953,0,21.681-21.042,4.99-31.245c-22.174-13.554-33.093-16.691-53.237-23.776"/>
	<path style="fill-rule:evenodd;clip-rule:evenodd;fill:none;stroke:#000000;stroke-width:15.0001;stroke-miterlimit:22.9256;" d="&#10;&#9;&#9;M340.093,393.575l21.185,37.773c11.872,21.169,16.891,20.204,31.205,20.204h44.976c21.242,0,21.225-27.738,1.875-32.177&#10;&#9;&#9;l-30.851-7.076c-14.156-38.938-29.841-67.843-60.889-94.467l22.751-75.552c7.014-23.292-25.016-38.057-34.52-14.066l-26.554,67.033&#10;&#9;&#9;c-9.247,23.342-6.069,32.547,2.3,47.469l21.184,37.773"/>
	<path style="fill-rule:evenodd;clip-rule:evenodd;fill:none;stroke:#000000;stroke-width:15.0001;stroke-miterlimit:22.9256;" d="&#10;&#9;&#9;M12.668,378.271c-20.845-115.606,23.678-167.05,92.061-200.448 M118.803,171.322c67.695-29.565,154.345-45.684,224.604-87.637&#10;&#9;&#9;c23.04-29.049,52.405-30.601,80.083-7.447c24.792-0.783,63.596,3.728,72.098,30.06l7.53,23.323&#10;&#9;&#9;c13.388,41.469-90.047,66.043-155.523,188.213"/>
	<path style="fill-rule:evenodd;clip-rule:evenodd;fill:none;stroke:#000000;stroke-width:15.0001;stroke-miterlimit:22.9256;" d="&#10;&#9;&#9;M241.027,370.696c14.835,0.099,59.49-13.989,70.544-27.978"/>
	<path style="fill-rule:evenodd;clip-rule:evenodd;fill:none;stroke:#000000;stroke-width:15.0001;stroke-miterlimit:22.9256;" d="&#10;&#9;&#9;M503.117,129.621c-100.851,25.025-113.478,39.438-149.22,86.45"/>
	<path style="fill-rule:evenodd;clip-rule:evenodd;fill:none;stroke:#000000;stroke-width:15.0001;stroke-miterlimit:22.9256;" d="&#10;&#9;&#9;M196.193,306.609c53.061,0,117.548-50.149,139.631-78.394"/>
	
		<circle style="fill-rule:evenodd;clip-rule:evenodd;fill:none;stroke:#000000;stroke-width:15.0001;stroke-miterlimit:22.9256;" cx="388.691" cy="119.872" r="15"/>
	<path style="fill-rule:evenodd;clip-rule:evenodd;fill:none;stroke:#000000;stroke-width:15.0001;stroke-miterlimit:22.9256;" d="&#10;&#9;&#9;M273.509,160.786v-15 M243.509,175.787v-15"/>
</g>















</svg>
