<svg id="a7c8badb-71e4-4a31-99fd-db1a0b584b45" viewBox="0 0 64 64" xmlns="http://www.w3.org/2000/svg" data-name="line"><path d="m45.446 21.56287c-.49332-1.469-3.29628-7.24384-8.51681-8.20461a18.73027 18.73027 0 0 0 -11.28568 8.01283 1.00032 1.00032 0 0 0 1.68363 1.08 17.07126 17.07126 0 0 1 9.73776-7.07124 11.25706 11.25706 0 0 1 5.91669 5.58325c-9.18182-1.57251-18.85122 2.59681-25.793 10.31142a13.63239 13.63239 0 0 0 -2.75256-2.6017 1 1 0 1 0 -1.15235 1.63477 11.70887 11.70887 0 0 1 2.632 2.59088 26.50737 26.50737 0 0 0 -2.08026 3.3432 1 1 0 1 0 1.77441.92285c3.87061-7.43994 10.67041-11.24707 15.69287-13.13037 16.37366-5.6103 25.34211 6.25051 25.13264 15.38285a1.00045 1.00045 0 0 0 2.0002.03849c.00246-.13792.11475-13.75236-12.98954-17.89262z"/><path d="m34.10254 44.29639a36.695 36.695 0 0 1 -16.3667-5.65967 1.00141 1.00141 0 0 0 -1.46484.3081c-2.57959 4.52881-7.44922 5.46192-10.19629 5.60743 5.03125-6.73731 1.49267-13.11182-.41895-15.70557a9.33237 9.33237 0 0 1 4.29248-.07178 1 1 0 1 0 .44336-1.95019c-1.0844-.511-9.06269-.34725-7.16363 2.208.31305.31833 7.57965 7.88865-.00922 15.7949a.9997.9997 0 0 0 .60107 1.68506 13.286 13.286 0 0 0 1.501.07324c2.75733 0 8.63428-.646 12.11963-5.74121a39.81814 39.81814 0 0 0 16.4375 5.439 1.0001 1.0001 0 0 0 .22459-1.98731z"/><path d="m51.74805 39.271a1 1 0 0 0 .084 1.998 4.3991 4.3991 0 0 1 2.90133.5835 52.05259 52.05259 0 0 1 -7.7464 1.99231c-5.05145-9.71539.47742-15.08087.73175-15.319a1.00026 1.00026 0 0 0 -1.356-1.47016c-.07045.06482-6.68733 6.34382-1.453 17.11011a45.50464 45.50464 0 0 1 -6.28766.39423 1.0006 1.0006 0 0 0 -1.01221.98779c-.01215.82715.8091 1.10893 1.51273 1.01505a51.07456 51.07456 0 0 0 17.37941-3.21273 1.00008 1.00008 0 0 0 .65723-.979c-.08652-2.05383-2.76604-3.3535-5.41118-3.1001z"/><path d="m38.72559 39.334a1.00077 1.00077 0 0 0 -1.41114.09864 1.60906 1.60906 0 0 1 -1.6748.25781 7.8187 7.8187 0 0 0 -3.8291-3.96777 8.38916 8.38916 0 0 1 8.14453 3.59179 1.00025 1.00025 0 0 0 1.69528-1.06156 10.59122 10.59122 0 0 0 -13.165-3.665 1.00665 1.00665 0 0 0 .07818 1.88135c1.32661.416 4.85786 1.97314 5.25434 4.15478.26018.99135 1.52333 1.09805 2.561 1.18517 1.061.13949 3.60148-1.10811 2.34671-2.47521z"/><path d="m51.8418 33.26221v-.36133a1.0001 1.0001 0 0 0 -2 0v.36129a1.0001 1.0001 0 0 0 2 .00004z"/></svg>